#tb 0: 1001/30000
0,          0,          0,        1,    62400, ff2dda3ddbe8b461d960baba0ad132bf
0,          1,          1,        1,    62400, d6935ac8f2250316f498e8f01afa04fd
0,          2,          2,        1,    62400, 57173ebaef7b21698c62fa959cb40ead
0,          3,          3,        1,    62400, f354c76d7cf45e9f3adfdde0f6b3b5c9
0,          4,          4,        1,    62400, fbc968ecd214b01509a76996e45dd09a
0,          5,          5,        1,    62400, 9c314b51a80f2a081adf9b9cc26f5f8a
0,          6,          6,        1,    62400, f22883a6a5b74ffa4bb16f22d496b5a5
0,          7,          7,        1,    62400, eb4fa914fc5658d43e32c48a0c39bab3
0,          8,          8,        1,    62400, d763c0c2f44b68e1e3fe9e165334eb0b
0,          9,          9,        1,    62400, 344e1075a48cd61e79b0550809b4c91f
